<svg width="50" height="50" viewBox="0 0 50 50" fill="none" xmlns="http://www.w3.org/2000/svg">
<g clip-path="url(#clip0_480_278)">
<path d="M49.2882 13.1295C49.2881 13.1295 49.2881 13.1295 49.288 13.1295L49.2863 13.1279L46.059 12.6674C45.6053 12.6028 45.29 12.1827 45.3546 11.7291C45.3856 11.5111 45.502 11.3144 45.6781 11.1823L48.2866 9.226C48.6532 8.95107 48.7274 8.43109 48.4525 8.06449L45.4658 4.08216C45.1908 3.71556 44.6708 3.6413 44.3042 3.91623L41.6966 5.87255C41.3316 6.14955 40.8112 6.0782 40.5342 5.71315C40.3997 5.53592 40.342 5.31201 40.3742 5.09184L40.8355 1.8645C40.9005 1.41089 40.5855 0.990563 40.132 0.925436C40.1317 0.925436 40.1314 0.925332 40.1311 0.925332L35.2063 0.221787C34.7528 0.15666 34.3322 0.471512 34.2671 0.925125C34.2671 0.925228 34.2671 0.925228 34.2671 0.925332L33.8058 4.15268C33.7412 4.60629 33.3211 4.92166 32.8675 4.85705C32.6495 4.82604 32.4529 4.70958 32.3208 4.53349L30.3653 1.92506C30.0903 1.55846 29.5704 1.48421 29.2037 1.75913L26.7106 3.63C25.5827 3.51011 24.4453 3.51011 23.3174 3.63C15.9308 4.47427 10.1382 10.365 9.41821 17.7648C9.39581 17.9996 9.38751 18.2327 9.3759 18.4658H9.127C8.73333 18.4666 8.39431 18.7439 8.3156 19.1296L7.74231 21.8558L5.44584 20.272C5.11626 20.0446 4.67115 20.0851 4.38803 20.3682L1.89908 22.8572C1.61637 23.1402 1.57593 23.5847 1.80284 23.9142L3.37917 26.2065L0.652108 26.7798C0.270676 26.8634 -0.000827756 27.2016 1.8962e-06 27.592V30.9106C-0.000205517 31.303 0.27472 31.642 0.658745 31.7228L3.38581 32.2961L1.80947 34.5885C1.58256 34.9179 1.62301 35.3624 1.90571 35.6454L4.39467 38.1344C4.67779 38.4175 5.12289 38.4581 5.45247 38.2306L7.7448 36.6501L8.31809 39.3772C8.3968 39.7629 8.73582 40.0402 9.12949 40.0409H12.4481C12.8405 40.0411 13.1794 39.7662 13.2603 39.3822L13.8336 36.6551L16.1259 38.2315C16.4554 38.4584 16.8999 38.4179 17.1829 38.1352L18.4714 36.8426V39.2071C18.4751 40.3874 19.1074 41.4762 20.1307 42.0645V46.674C20.1307 48.5068 21.6165 49.9926 23.4493 49.9926H26.7679C28.6007 49.9926 30.0865 48.5068 30.0865 46.674V42.0645C31.1098 41.4762 31.7421 40.3874 31.7458 39.2071V35.9234C31.7683 34.5417 32.4911 33.2661 33.6648 32.5367C34.3533 32.0901 35.0062 31.5907 35.6178 31.0434L34.511 29.8072C33.964 30.2975 33.3795 30.7444 32.763 31.1437C31.1156 32.1777 30.1071 33.9785 30.0865 35.9234V39.2071C30.0865 40.1236 29.3436 40.8664 28.4272 40.8664H21.79C20.8735 40.8664 20.1307 40.1236 20.1307 39.2071V35.8545C20.1115 33.9464 19.1189 32.1804 17.499 31.172C10.9233 27.0401 8.94209 18.3599 13.074 11.7842C15.6376 7.70431 20.1117 5.22106 24.9302 5.20385C24.9179 5.2334 24.907 5.26358 24.8979 5.29428C24.8671 5.51206 24.9241 5.73327 25.0563 5.90905L27.0118 8.51665C27.218 8.78348 27.2378 9.14998 27.0616 9.43756C26.8919 9.7269 26.5639 9.88474 26.2319 9.83662L23.0046 9.37534C22.551 9.31031 22.1307 9.62527 22.0655 10.0788C22.0655 10.0791 22.0654 10.0794 22.0654 10.0797L21.361 15.007C21.296 15.4605 21.611 15.8809 22.0645 15.9461C22.0648 15.9461 22.0651 15.9462 22.0654 15.9462L25.2928 16.4075C25.7464 16.4721 26.0618 16.8922 25.9971 17.3458C25.9661 17.5638 25.8497 17.7604 25.6736 17.8925L23.066 19.848C22.6994 20.123 22.6251 20.6429 22.9001 21.0095L25.8868 24.9919C26.1617 25.3585 26.6817 25.4327 27.0483 25.1578L29.6567 23.2023C30.0236 22.9279 30.5436 23.0029 30.818 23.3699C30.9493 23.5455 31.0059 23.766 30.9751 23.983L30.5146 27.2104C30.4495 27.6639 30.7643 28.0844 31.2179 28.1495C31.218 28.1495 31.218 28.1495 31.2181 28.1495L36.1463 28.8539C36.1851 28.8589 36.2242 28.8614 36.2633 28.8614C36.6763 28.8619 37.0267 28.5584 37.0854 28.1495L37.5459 24.9222C37.6105 24.4686 38.0306 24.1532 38.4842 24.2178C38.7022 24.2488 38.8988 24.3653 39.031 24.5414L40.9873 27.149C41.2622 27.5156 41.7822 27.5898 42.1488 27.3149L46.1311 24.3282C46.4977 24.0532 46.572 23.5332 46.2971 23.1666L44.3416 20.559C44.1363 20.2918 44.1165 19.9259 44.2918 19.6381C44.4578 19.345 44.7889 19.1861 45.1214 19.2399L48.3488 19.7004C48.8023 19.7655 49.2228 19.4505 49.288 18.997C49.288 18.9969 49.288 18.9969 49.288 18.9968L49.9915 14.0687C50.0566 13.6151 49.7418 13.1946 49.2882 13.1295ZM21.79 42.5257H28.4272V44.185H21.79V42.5257ZM21.79 45.8443H28.4272V46.674C28.4272 47.5905 27.6843 48.3333 26.7679 48.3333H23.4493C22.5328 48.3333 21.79 47.5905 21.79 46.674V45.8443ZM15.1851 31.537C15.6381 31.9074 16.1114 32.2524 16.603 32.5699C17.3869 33.0653 17.977 33.8148 18.2747 34.693L16.4951 36.4693L14.772 35.2812C14.0174 34.7612 12.9842 34.9514 12.4641 35.706C12.3394 35.887 12.2519 36.0909 12.2067 36.3058L11.7719 38.3775H9.79985L9.36511 36.3092C9.17637 35.4124 8.29642 34.8384 7.39967 35.0271C7.18468 35.0724 6.9808 35.1599 6.79983 35.2845L5.07581 36.4693L3.56419 34.961L4.75142 33.2386C5.27192 32.4844 5.08235 31.451 4.32809 30.9305C4.14702 30.8056 3.94292 30.7178 3.72763 30.6725L1.65931 30.2369V28.2657L3.72763 27.8301C4.62407 27.64 5.19673 26.7592 5.00664 25.8627C4.96153 25.65 4.87514 25.4483 4.75225 25.269L3.56419 23.5416L5.07581 22.0333L6.80066 23.2214C7.55554 23.7409 8.58877 23.55 9.10823 22.7952C9.23268 22.6144 9.32 22.4107 9.36511 22.1959L9.5103 21.5057C9.64325 22.4616 9.86342 23.4033 10.1682 24.319C7.43835 24.6445 5.48919 27.1214 5.81462 29.8513C6.14005 32.5811 8.61697 34.5303 11.3468 34.2049C12.9902 34.0088 14.4287 33.009 15.1851 31.537ZM13.8967 30.368C13.2771 32.0901 11.379 32.9838 9.65694 32.3644C7.9349 31.7448 7.04115 29.8467 7.66059 28.1246C8.13453 26.8073 9.38533 25.9298 10.7854 25.9327C10.7962 25.9327 10.8061 25.9327 10.8169 25.9327C11.5799 27.5778 12.6218 29.0783 13.8967 30.368ZM47.7581 17.9382L45.3521 17.5947C43.9913 17.4004 42.7306 18.3461 42.5363 19.7068C42.4429 20.3602 42.613 21.0241 43.0092 21.5521L44.4669 23.496L41.812 25.4872L40.3534 23.5441C39.5288 22.4443 37.9687 22.2213 36.869 23.0459C36.3409 23.4419 35.9918 24.0314 35.8982 24.6849L35.5622 27.0942L32.2776 26.6246L32.6211 24.2186C32.8159 22.8579 31.8708 21.5968 30.51 21.4021C29.8562 21.3084 29.192 21.4785 28.6636 21.8749L26.7198 23.3326L24.7286 20.6777L26.6716 19.2192C27.7715 18.3945 27.9945 16.8344 27.1699 15.7347C26.7739 15.2066 26.1843 14.8575 25.5309 14.7639L23.1249 14.4205L23.5945 11.1359L26.0005 11.4793C27.3612 11.6742 28.6223 10.729 28.817 9.36829C28.9107 8.71442 28.7406 8.05028 28.3442 7.52189L26.8816 5.57636L29.5364 3.5852L30.995 5.52907C31.8196 6.62888 33.3797 6.85195 34.4794 6.02728C35.0075 5.63133 35.3567 5.04175 35.4502 4.3883L35.7937 1.98231L39.0783 2.45106L38.7348 4.85705C38.5404 6.21789 39.486 7.47855 40.8469 7.67289C41.5003 7.76623 42.1642 7.59615 42.6922 7.19999L44.6361 5.74229L46.6273 8.39718L44.6834 9.85571C43.5836 10.6804 43.3605 12.2404 44.1852 13.3401C44.5811 13.8682 45.1707 14.2174 45.8242 14.3109L48.2302 14.6544L47.7581 17.9382Z" fill="#0E59F2"/>
<path d="M35.6748 7.89941C32.0092 7.89941 29.0376 10.871 29.0376 14.5366C29.0376 18.2022 32.0092 21.1738 35.6748 21.1738C39.3404 21.1738 42.312 18.2022 42.312 14.5366C42.3079 10.8727 39.3388 7.90346 35.6748 7.89941ZM35.6748 19.5145C32.9256 19.5145 30.6969 17.2859 30.6969 14.5366C30.6969 11.7874 32.9256 9.55872 35.6748 9.55872C38.4241 9.55872 40.6527 11.7874 40.6527 14.5366C40.6495 17.2845 38.4227 19.5113 35.6748 19.5145Z" fill="#0E59F2"/>
<path d="M25.9381 36.7183H24.2788V39.2072H25.9381V36.7183Z" fill="#0E59F2"/>
<path d="M21.4796 28.5701C16.358 26.5694 13.8281 20.7957 15.8289 15.6741C16.6042 13.6896 17.9957 12.0061 19.7987 10.8712L18.9118 9.46741C13.4842 12.8867 11.8561 20.0585 15.2754 25.4861C16.5997 27.5881 18.563 29.2102 20.8772 30.1141C22.9257 30.899 24.2783 32.8652 24.2788 35.0588H25.9381C25.9407 32.1808 24.1671 29.5996 21.4796 28.5701Z" fill="#0E59F2"/>
<path d="M46.6796 30.9106H40.8721V32.5699H46.6796V30.9106Z" fill="#0E59F2"/>
<path d="M40.5733 35.2507L39.5112 36.5255L44.4895 40.6731L45.5516 39.3983L40.5733 35.2507Z" fill="#0E59F2"/>
<path d="M37.5533 37.5479H35.894V43.3554H37.5533V37.5479Z" fill="#0E59F2"/>
<path d="M7.48392 12.6827L0.847168 14.3417L1.24935 15.9506L7.8861 14.2915L7.48392 12.6827Z" fill="#0E59F2"/>
<path d="M3.18949 4.51744L2.22559 5.86694L8.03269 10.0148L8.99659 8.66527L3.18949 4.51744Z" fill="#0E59F2"/>
<path d="M10.9415 0.00695939L9.33398 0.417969L11.0308 7.05467L12.6384 6.64366L10.9415 0.00695939Z" fill="#0E59F2"/>
</g>
<defs>
<clipPath id="clip0_480_278">
<rect width="50" height="50" fill="white"/>
</clipPath>
</defs>
</svg>
